<svg xmlns="http://www.w3.org/2000/svg" viewBox="0 0 1600 760" role="img" aria-label="Dekoracyjne zielono-zlote tlo abstrakcyjne">
  <defs>
    <radialGradient id="glow" cx="78%" cy="20%" r="60%">
      <stop offset="0" stop-color="#d7ad5b" stop-opacity="0.24"/>
      <stop offset="0.55" stop-color="#173e33" stop-opacity="0.42"/>
      <stop offset="1" stop-color="#092f28" stop-opacity="1"/>
    </radialGradient>
    <linearGradient id="base" x1="0" y1="0" x2="1" y2="1">
      <stop offset="0" stop-color="#062720"/>
      <stop offset="0.42" stop-color="#0d382f"/>
      <stop offset="1" stop-color="#071f1b"/>
    </linearGradient>
    <filter id="noise">
      <feTurbulence type="fractalNoise" baseFrequency="0.8" numOctaves="3" stitchTiles="stitch"/>
      <feColorMatrix type="saturate" values="0"/>
      <feComponentTransfer><feFuncA type="table" tableValues="0 0.08"/></feComponentTransfer>
    </filter>
  </defs>
  <rect width="1600" height="760" fill="url(#base)"/>
  <rect width="1600" height="760" fill="url(#glow)"/>
  <g opacity="0.22" fill="none" stroke="#f0c777" stroke-width="2">
    <path d="M-120 560 C 240 420, 330 690, 640 470 S 1060 160, 1740 230"/>
    <path d="M-60 660 C 250 520, 410 630, 690 400 S 1140 90, 1690 120"/>
    <path d="M620 -80 C 700 180, 570 250, 780 390 S 1190 530, 1710 420"/>
    <path d="M920 -40 C 1000 180, 880 290, 1090 450 S 1410 620, 1700 600"/>
  </g>
  <g opacity="0.14" fill="none" stroke="#ffffff" stroke-width="1">
    <path d="M-160 260 C 210 90, 430 210, 760 100 S 1280 -40, 1720 50"/>
    <path d="M-70 350 C 210 210, 430 310, 680 210 S 1160 80, 1720 180"/>
  </g>
  <g opacity="0.22" fill="#d7ad5b">
    <circle cx="1230" cy="170" r="2"/><circle cx="1274" cy="180" r="1.5"/><circle cx="1320" cy="230" r="1.4"/>
    <circle cx="1390" cy="200" r="2.1"/><circle cx="1410" cy="270" r="1.2"/><circle cx="1120" cy="290" r="1.8"/>
    <circle cx="1180" cy="350" r="1.1"/><circle cx="1300" cy="390" r="1.9"/><circle cx="1480" cy="360" r="1.5"/>
  </g>
  <rect width="1600" height="760" filter="url(#noise)" opacity="0.4"/>
</svg>
